<?xml version="1.0" encoding="UTF-8" standalone="no"?><!DOCTYPE svg PUBLIC "-//W3C//DTD SVG 1.1//EN" "http://www.w3.org/Graphics/SVG/1.1/DTD/svg11.dtd"><svg width="100%" height="100%" viewBox="0 0 336 130" version="1.1" xmlns="http://www.w3.org/2000/svg" xmlns:xlink="http://www.w3.org/1999/xlink" xml:space="preserve" xmlns:serif="http://www.serif.com/" style="fill-rule:evenodd;clip-rule:evenodd;stroke-linejoin:round;stroke-miterlimit:2;"><rect id="Artboard1" x="0" y="0" width="335.03" height="129.697" style="fill:none;"/><path d="M10.958,69.859l8.618,0l0,-53.104l-8.618,-0l0,-1.087l44.409,-0l0,13.431l-0.854,0c-0.673,-2.018 -1.397,-3.791 -2.174,-5.318c-0.776,-1.527 -1.708,-2.821 -2.795,-3.882c-1.087,-1.061 -2.381,-1.85 -3.882,-2.368c-1.501,-0.517 -3.312,-0.776 -5.434,-0.776l-12.888,-0l-0,23.99l5.046,-0c1.708,-0 3.158,-0.155 4.348,-0.466c1.191,-0.311 2.213,-0.893 3.067,-1.747c0.854,-0.854 1.578,-2.018 2.174,-3.494c0.595,-1.475 1.177,-3.377 1.746,-5.706l0.854,0l0,24.145l-0.854,0c-0.362,-1.501 -0.737,-2.95 -1.125,-4.347c-0.388,-1.398 -0.932,-2.64 -1.631,-3.727c-0.698,-1.087 -1.63,-1.954 -2.795,-2.601c-1.164,-0.647 -2.678,-0.97 -4.541,-0.97l-6.289,-0l-0,28.027l14.673,0c2.847,0 5.215,-0.608 7.104,-1.824c1.889,-1.217 3.429,-2.666 4.62,-4.348c1.19,-1.682 2.07,-3.429 2.639,-5.241c0.57,-1.811 0.932,-3.312 1.087,-4.503l0.854,0l0,17.003l-47.359,-0l0,-1.087Z" style="fill-rule:nonzero;"/><path d="M65.615,69.859l8.618,0l0,-53.104l-8.618,-0l0,-1.087l25,-0l-0,1.087l-8.618,-0l-0,53.104l13.819,0c4.555,0 8.127,-1.423 10.714,-4.27c2.588,-2.847 4.478,-6.729 5.668,-11.646l0.854,0l0,17.003l-47.437,-0l0,-1.087Z" style="fill-rule:nonzero;"/><path d="M119.03,69.859l8.618,0l-0,-53.104l-8.618,-0l0,-1.087l25,-0l-0,1.087l-8.618,-0l-0,53.104l8.618,0l-0,1.087l-25,-0l0,-1.087Z" style="fill-rule:nonzero;"/><path d="M165.302,43.152c1.036,0.207 2.122,0.362 3.261,0.465c1.139,0.104 2.148,0.156 3.028,0.156c3.83,-0 6.819,-1.126 8.967,-3.378c2.148,-2.251 3.222,-5.654 3.222,-10.209c0,-2.64 -0.259,-4.839 -0.776,-6.599c-0.518,-1.76 -1.333,-3.17 -2.446,-4.231c-1.113,-1.061 -2.562,-1.799 -4.348,-2.213c-1.785,-0.414 -3.92,-0.621 -6.405,-0.621c-0.983,-0 -1.876,0.026 -2.678,0.077c-0.802,0.052 -1.411,0.104 -1.825,0.156l0,26.397Zm-16.381,26.707l8.618,0l-0,-53.104l-8.618,-0l-0,-1.087l14.596,-0c0.724,-0 1.449,-0.013 2.174,-0.039c0.724,-0.026 1.449,-0.065 2.173,-0.116c0.725,-0 1.437,-0.013 2.135,-0.039c0.699,-0.026 1.411,-0.039 2.135,-0.039c2.951,-0 5.681,0.349 8.191,1.048c2.511,0.699 4.684,1.695 6.522,2.989c1.837,1.294 3.274,2.847 4.309,4.658c1.035,1.812 1.552,3.83 1.552,6.056c0,2.329 -0.595,4.4 -1.785,6.211c-1.191,1.812 -2.769,3.339 -4.736,4.581c-1.967,1.242 -4.257,2.199 -6.871,2.872c-2.614,0.673 -5.344,1.01 -8.191,1.01c-0.724,-0 -1.656,-0.065 -2.795,-0.194c-1.138,-0.13 -2.148,-0.272 -3.028,-0.427l0,25.62l8.618,0l0,1.087l-24.999,-0l-0,-1.087Z" style="fill-rule:nonzero;"/><path d="M202.724,54.254l0.854,-0c0.569,2.795 1.307,5.15 2.212,7.065c0.906,1.915 1.903,3.494 2.99,4.736c1.086,1.242 2.225,2.2 3.416,2.872c1.19,0.673 2.393,1.165 3.61,1.475c1.216,0.311 2.381,0.492 3.493,0.544c1.113,0.052 2.161,0.078 3.145,0.078c2.743,-0 4.994,-0.414 6.754,-1.243c1.76,-0.828 3.158,-1.876 4.193,-3.144c1.035,-1.268 1.76,-2.64 2.174,-4.115c0.414,-1.475 0.621,-2.834 0.621,-4.076c-0,-1.811 -0.337,-3.364 -1.01,-4.658c-0.672,-1.294 -1.526,-2.394 -2.562,-3.3c-1.035,-0.905 -2.161,-1.643 -3.377,-2.212c-1.216,-0.57 -2.368,-1.01 -3.455,-1.32l-8.928,-2.717c-4.193,-1.294 -7.363,-3.002 -9.511,-5.125c-2.148,-2.122 -3.222,-4.968 -3.222,-8.54c0,-2.329 0.414,-4.49 1.242,-6.482c0.829,-1.993 1.993,-3.714 3.494,-5.163c1.501,-1.45 3.3,-2.588 5.396,-3.416c2.096,-0.829 4.387,-1.243 6.871,-1.243c1.811,0 3.325,0.156 4.542,0.466c1.216,0.311 2.264,0.66 3.144,1.048c0.88,0.388 1.669,0.738 2.368,1.048c0.699,0.311 1.41,0.466 2.135,0.466c0.673,0 1.126,-0.09 1.359,-0.272c0.233,-0.181 0.556,-0.634 0.97,-1.358l1.087,-0l0,14.052l-0.932,0c-0.31,-1.863 -0.841,-3.662 -1.591,-5.396c-0.751,-1.733 -1.721,-3.26 -2.911,-4.58c-1.191,-1.32 -2.627,-2.381 -4.309,-3.183c-1.683,-0.803 -3.636,-1.204 -5.862,-1.204c-1.242,0 -2.614,0.168 -4.115,0.505c-1.501,0.336 -2.898,0.919 -4.192,1.747c-1.294,0.828 -2.368,1.915 -3.222,3.261c-0.854,1.345 -1.281,3.053 -1.281,5.124c-0,1.656 0.336,3.066 1.009,4.231c0.673,1.164 1.54,2.148 2.601,2.95c1.061,0.802 2.251,1.475 3.571,2.019c1.32,0.543 2.653,1.022 3.999,1.436l9.394,2.95c0.983,0.311 2.225,0.725 3.726,1.242c1.501,0.518 2.964,1.294 4.387,2.33c1.423,1.035 2.64,2.406 3.649,4.114c1.009,1.708 1.514,3.882 1.514,6.522c-0,2.433 -0.453,4.749 -1.359,6.949c-0.906,2.199 -2.213,4.14 -3.921,5.822c-1.708,1.683 -3.778,3.028 -6.211,4.038c-2.432,1.009 -5.175,1.514 -8.229,1.514c-1.087,-0 -2.045,-0.013 -2.873,-0.039c-0.828,-0.026 -1.604,-0.091 -2.329,-0.194c-0.725,-0.104 -1.449,-0.22 -2.174,-0.35c-0.724,-0.129 -1.527,-0.323 -2.407,-0.582c-1.035,-0.311 -2.148,-0.673 -3.338,-1.087c-1.19,-0.414 -2.226,-0.621 -3.106,-0.621c-0.776,-0 -1.306,0.155 -1.591,0.466c-0.285,0.31 -0.531,0.724 -0.738,1.242l-1.164,-0l-0,-16.692Z" style="fill-rule:nonzero;"/><path d="M251.247,69.859l8.618,0l0,-53.104l-8.618,-0l0,-1.087l25,-0l-0,1.087l-8.618,-0l0,53.104l8.618,0l-0,1.087l-25,-0l0,-1.087Z" style="fill-rule:nonzero;"/><path d="M284.632,54.254l0.854,-0c0.569,2.795 1.307,5.15 2.212,7.065c0.906,1.915 1.903,3.494 2.989,4.736c1.087,1.242 2.226,2.2 3.417,2.872c1.19,0.673 2.393,1.165 3.61,1.475c1.216,0.311 2.381,0.492 3.493,0.544c1.113,0.052 2.161,0.078 3.145,0.078c2.743,-0 4.994,-0.414 6.754,-1.243c1.76,-0.828 3.157,-1.876 4.193,-3.144c1.035,-1.268 1.759,-2.64 2.174,-4.115c0.414,-1.475 0.621,-2.834 0.621,-4.076c-0,-1.811 -0.337,-3.364 -1.01,-4.658c-0.673,-1.294 -1.527,-2.394 -2.562,-3.3c-1.035,-0.905 -2.161,-1.643 -3.377,-2.212c-1.216,-0.57 -2.368,-1.01 -3.455,-1.32l-8.928,-2.717c-4.193,-1.294 -7.363,-3.002 -9.511,-5.125c-2.148,-2.122 -3.222,-4.968 -3.222,-8.54c0,-2.329 0.414,-4.49 1.242,-6.482c0.829,-1.993 1.993,-3.714 3.494,-5.163c1.501,-1.45 3.3,-2.588 5.396,-3.416c2.096,-0.829 4.386,-1.243 6.871,-1.243c1.811,0 3.325,0.156 4.542,0.466c1.216,0.311 2.264,0.66 3.144,1.048c0.88,0.388 1.669,0.738 2.368,1.048c0.699,0.311 1.41,0.466 2.135,0.466c0.673,0 1.126,-0.09 1.359,-0.272c0.233,-0.181 0.556,-0.634 0.97,-1.358l1.087,-0l0,14.052l-0.932,0c-0.31,-1.863 -0.841,-3.662 -1.591,-5.396c-0.751,-1.733 -1.721,-3.26 -2.912,-4.58c-1.19,-1.32 -2.626,-2.381 -4.308,-3.183c-1.683,-0.803 -3.637,-1.204 -5.862,-1.204c-1.242,0 -2.614,0.168 -4.115,0.505c-1.501,0.336 -2.898,0.919 -4.192,1.747c-1.294,0.828 -2.368,1.915 -3.222,3.261c-0.854,1.345 -1.281,3.053 -1.281,5.124c-0,1.656 0.336,3.066 1.009,4.231c0.673,1.164 1.54,2.148 2.601,2.95c1.061,0.802 2.251,1.475 3.571,2.019c1.32,0.543 2.653,1.022 3.998,1.436l9.395,2.95c0.983,0.311 2.225,0.725 3.726,1.242c1.501,0.518 2.963,1.294 4.387,2.33c1.423,1.035 2.639,2.406 3.649,4.114c1.009,1.708 1.514,3.882 1.514,6.522c-0,2.433 -0.453,4.749 -1.359,6.949c-0.906,2.199 -2.213,4.14 -3.921,5.822c-1.708,1.683 -3.778,3.028 -6.211,4.038c-2.432,1.009 -5.176,1.514 -8.229,1.514c-1.087,-0 -2.045,-0.013 -2.873,-0.039c-0.828,-0.026 -1.604,-0.091 -2.329,-0.194c-0.725,-0.104 -1.449,-0.22 -2.174,-0.35c-0.725,-0.129 -1.527,-0.323 -2.407,-0.582c-1.035,-0.311 -2.148,-0.673 -3.338,-1.087c-1.191,-0.414 -2.226,-0.621 -3.106,-0.621c-0.776,-0 -1.307,0.155 -1.591,0.466c-0.285,0.31 -0.531,0.724 -0.738,1.242l-1.164,-0l-0,-16.692Z" style="fill-rule:nonzero;"/><g><g><rect x="74.103" y="80.564" width="186.823" height="34.863"/><path d="M90.203,109.562l7.854,0c1.735,0 3.2,-0.381 4.395,-1.142c1.206,-0.709 2.147,-1.608 2.824,-2.698c0.254,-0.412 0.471,-0.809 0.651,-1.19c0.169,-0.391 0.296,-0.835 0.381,-1.332c0.18,-0.984 0.27,-2.719 0.27,-5.205c-0,-2.338 -0.059,-3.983 -0.175,-4.935c-0.148,-0.952 -0.502,-1.861 -1.063,-2.729c-1.566,-2.581 -3.914,-3.882 -7.045,-3.903l-8.092,0l-0,23.134Zm3.506,-19.818l4.189,0c1.777,-0.042 3.153,0.608 4.126,1.952c0.476,0.539 0.777,1.243 0.904,2.11c0.095,0.868 0.143,2.306 0.143,4.316c-0,2.063 -0.048,3.47 -0.143,4.221c-0.106,0.761 -0.354,1.391 -0.746,1.888c-0.888,1.343 -2.316,2.015 -4.284,2.015l-4.189,-0l0,-16.502Z" style="fill:#fff;fill-rule:nonzero;"/><rect x="118.462" y="86.428" width="3.507" height="23.134" style="fill:#fff;fill-rule:nonzero;"/><path d="M142.136,100.137l4.712,0l0,1.206c-0.021,1.449 -0.476,2.618 -1.364,3.507c-0.889,0.931 -2.016,1.396 -3.38,1.396c-0.825,-0 -1.534,-0.175 -2.126,-0.524c-0.603,-0.296 -1.09,-0.682 -1.46,-1.158c-0.455,-0.497 -0.756,-1.148 -0.904,-1.952c-0.17,-0.803 -0.254,-2.343 -0.254,-4.617c-0,-2.274 0.084,-3.824 0.254,-4.649c0.148,-0.783 0.449,-1.423 0.904,-1.92c0.37,-0.476 0.857,-0.873 1.46,-1.19c0.592,-0.307 1.301,-0.471 2.126,-0.492c1.121,0.021 2.073,0.344 2.856,0.968c0.751,0.656 1.269,1.449 1.555,2.38l3.713,0c-0.37,-1.936 -1.259,-3.559 -2.666,-4.871c-1.407,-1.301 -3.226,-1.962 -5.458,-1.983c-1.82,0.021 -3.337,0.454 -4.554,1.301c-1.238,0.835 -2.137,1.787 -2.697,2.856c-0.349,0.56 -0.609,1.296 -0.778,2.205c-0.158,0.91 -0.238,2.708 -0.238,5.395c0,2.645 0.08,4.432 0.238,5.363c0.085,0.497 0.191,0.91 0.318,1.238c0.137,0.317 0.29,0.65 0.46,0.999c0.56,1.069 1.459,2.01 2.697,2.825c1.217,0.846 2.734,1.29 4.554,1.333c2.359,-0.043 4.316,-0.841 5.871,-2.396c1.544,-1.566 2.337,-3.507 2.38,-5.824l-0,-4.712l-8.219,-0l-0,3.316Z" style="fill:#fff;fill-rule:nonzero;"/><rect x="162.239" y="86.428" width="3.507" height="23.134" style="fill:#fff;fill-rule:nonzero;"/><path d="M182.327,109.562l3.522,0l0,-20.008l6.331,-0l0,-3.126l-16.184,0l-0,3.126l6.331,-0l-0,20.008Z" style="fill:#fff;fill-rule:nonzero;"/><path d="M206.54,101.28l3.348,-10.108l0.063,0l3.348,10.108l-6.759,-0Zm9.552,8.282l3.697,0l-8.409,-23.134l-2.936,0l-8.409,23.134l3.712,0l1.778,-5.172l8.774,-0l1.793,5.172Z" style="fill:#fff;fill-rule:nonzero;"/><path d="M230.055,109.562l14.772,0l0,-3.316l-11.265,-0l-0,-19.818l-3.507,0l0,23.134Z" style="fill:#fff;fill-rule:nonzero;"/></g></g></svg>